<svg width="320" height="293" viewBox="0 0 320 293" fill="none" xmlns="http://www.w3.org/2000/svg">
    <g filter="url(#filter0_d_65_15)">
        <g clip-path="url(#clip0_65_15)">
            <rect x="28" y="16" width="264" height="237" rx="32" fill="white"/>
            <rect opacity="0.14" x="196" y="-8" width="120" height="120" rx="60" fill="#6C5DD3"/>
            <rect x="4" y="182" width="96" height="96" rx="48" fill="#E8FBF7"/>
            <g clip-path="url(#clip1_65_15)">
                <rect x="82" y="58" width="156" height="142" rx="24" fill="#F7F8FC"/>
                <rect x="82" y="58" width="156" height="42" rx="21" fill="#35CDB5"/>
                <rect x="82" y="80" width="156" height="20" fill="#35CDB5"/>
                <rect x="120" y="50" width="8" height="24" rx="4" fill="#202535"/>
                <rect x="192" y="50" width="8" height="24" rx="4" fill="#202535"/>
                <circle cx="114" cy="124" r="6" fill="#D9DEE8"/>
                <circle cx="144" cy="124" r="6" fill="#D9DEE8"/>
                <circle cx="174" cy="124" r="6" fill="#D9DEE8"/>
                <circle cx="204" cy="124" r="6" fill="#D9DEE8"/>
                <circle cx="114" cy="152" r="6" fill="#D9DEE8"/>
                <circle cx="144" cy="152" r="6" fill="#D9DEE8"/>
                <circle cx="174" cy="152" r="6" fill="#6C5DD3"/>
                <circle cx="204" cy="152" r="6" fill="#D9DEE8"/>
                <circle cx="114" cy="180" r="6" fill="#D9DEE8"/>
                <circle cx="144" cy="180" r="6" fill="#D9DEE8"/>
                <circle cx="174" cy="180" r="6" fill="#D9DEE8"/>
                <circle cx="204" cy="180" r="6" fill="#D9DEE8"/>
            </g>
            <rect x="82.5" y="58.5" width="155" height="141" rx="23.5" stroke="#D9DEE8"/>
            <rect x="192" y="166" width="64" height="64" rx="32" fill="#35CDB5"/>
            <path d="M224 191V205V191ZM217 198H231H217Z" fill="black"/>
            <path d="M224 191V205M217 198H231" stroke="white" stroke-width="2.5" stroke-linecap="round"/>
        </g>
    </g>
    <defs>
        <filter id="filter0_d_65_15" x="0" y="0" width="320" height="293" filterUnits="userSpaceOnUse" color-interpolation-filters="sRGB">
            <feFlood flood-opacity="0" result="BackgroundImageFix"/>
            <feColorMatrix in="SourceAlpha" type="matrix" values="0 0 0 0 0 0 0 0 0 0 0 0 0 0 0 0 0 0 127 0" result="hardAlpha"/>
            <feOffset dy="12"/>
            <feGaussianBlur stdDeviation="14"/>
            <feColorMatrix type="matrix" values="0 0 0 0 0.13 0 0 0 0 0.16 0 0 0 0 0.23 0 0 0 0.08 0"/>
            <feBlend mode="normal" in2="BackgroundImageFix" result="effect1_dropShadow_65_15"/>
            <feBlend mode="normal" in="SourceGraphic" in2="effect1_dropShadow_65_15" result="shape"/>
        </filter>
        <clipPath id="clip0_65_15">
            <rect x="28" y="16" width="264" height="237" rx="32" fill="white"/>
        </clipPath>
        <clipPath id="clip1_65_15">
            <rect x="82" y="58" width="156" height="142" rx="24" fill="white"/>
        </clipPath>
    </defs>
</svg>
